<?xml version="1.0" encoding="UTF-8" standalone="no"?>
<!DOCTYPE svg PUBLIC "-//W3C//DTD SVG 1.1//EN" "http://www.w3.org/Graphics/SVG/1.1/DTD/svg11.dtd">
<svg fill="#0d83ab" version="1.1" id="Layer_1" xmlns="http://www.w3.org/2000/svg" xmlns:xlink="http://www.w3.org/1999/xlink" width="800px" height="800px" viewBox="0 0 256.00 256.00" xml:space="preserve" stroke="#0d83ab" stroke-width="3.84">

<g id="SVGRepo_bgCarrier" stroke-width="0"/>

<g id="SVGRepo_tracerCarrier" stroke-linecap="round" stroke-linejoin="round"/>

<g id="SVGRepo_iconCarrier"> <path d="M220.7,173.4l-37.4-5.7c-6.2-1-12.6,1.2-16.9,5.7l-14.9,15.5c-1.1-0.8-2.2-1.4-3.2-1.7l-5.7-28.1c-1-5.4-4.6-10.5-12.6-11.9 l-14.7-2.6l1.2-6.7c0.5-2.6-0.7-4.3-3.1-4.8l-17.1-3c-2.4-0.4-4.1,0.8-4.6,3.4l-1.2,6.7l-14.9-2.6c-7.9-1.4-13,2.2-15.9,6.9 l-15,24.4c-4.2-0.2-12.2,3.3-13.8,12.2l-5.9,33.5l10.1,1.8l-1.9,10.6c-2.3,13.2,16.7,16.3,19,3.3l1.9-10.6l34.2,6l34.2,6l-1.9,10.6 c-2.3,13,16.7,16.6,19,3.3l1.9-10.6l10.1,1.8l2.5-14.4l55.9,9.5L220.7,173.4z M173.2,179.9c2.2-2.3,5.5-3.4,8.7-2.9l27.8,4.3 l-4.1,23l-48.5-7.6L173.2,179.9z M58.7,190.2c-0.9,5.1-5.4,8.2-10.2,7.4c-4.8-0.8-8-5.4-7.1-10.4c0.8-4.8,5.4-8.2,10.2-7.4 C56.4,180.6,59.5,185.1,58.7,190.2z M55.5,170.3l11.3-18.9c1.5-2.7,3.3-4.6,6.7-4l54.9,9.7c3.4,0.6,4.4,3,4.9,6.1l4.1,21.6 L55.5,170.3z M145.3,205.4c-0.9,5.1-5.4,8.2-10.2,7.4c-4.8-0.8-8-5.4-7.1-10.4c0.8-4.8,5.4-8.2,10.2-7.4 C143,195.9,146.2,200.4,145.3,205.4z M85.2,56.9c-0.3-6.3-3.6-12.1-8.9-15.5L44.6,20.9l-31,50.9l55.1,34.3l17.7-22.5L85.2,56.9z M47.6,34l23.6,15.3c2.7,1.8,4.4,4.7,4.6,8l0.9,23.2L35.4,54L47.6,34z M10.3,119.9l20.5,4.3L7.6,148.7L2,131L10.3,119.9z M214.7,138.6l34-10.9l5.3,20.3l-26.4,1.4L214.7,138.6z M116.4,4.4L109.3,2l-23.6,9.4l19,21.4L116.4,4.4z M118.8,29.5l0,20.2 L140.9,37L118.8,29.5z M245.6,97.9l-7.7-16l0,0l-10.2-21l0,0l0,0l0,0l0,0l-5.6-6.4l8.4-4.1c2.4-1.2,3.4-4,2.2-6.4 c-1.2-2.4-4-3.4-6.4-2.2L215.5,47l-12.4-14c-3.8-4.2-10-5.5-15.1-3l-49.3,23.8c-5.1,2.5-8,8.1-7,13.7l3.2,18.4l-10.1,4.9 c-2.4,1.2-3.4,4-2.2,6.4c1.2,2.4,4,3.4,6.4,2.2l7.6-3.7l1.5,8.4l0,0l10.2,21l0,0l7.7,16c1.2,2.4,4.1,3.4,6.5,2.3l5.9-2.8 c2.4-1.2,3.4-4.1,2.3-6.5l-4.9-10.2L226,94.8l4.9,10.2c1.2,2.4,4.1,3.4,6.5,2.3l5.9-2.8C245.8,103.3,246.8,100.4,245.6,97.9z M155.5,113.7c-4.5,0-8.2-3.7-8.2-8.2c0-4.5,3.7-8.2,8.2-8.2s8.2,3.7,8.2,8.2C163.7,110.1,160,113.7,155.5,113.7z M144.5,92l-4.5-26 c-0.3-1.9,0.7-3.8,2.4-4.7l49.3-23.8c1.7-0.8,3.9-0.4,5.2,1l17.5,19.7L144.5,92z M217.3,84c-4.5,0-8.2-3.7-8.2-8.2 c0-4.5,3.7-8.2,8.2-8.2s8.2,3.7,8.2,8.2C225.5,80.3,221.9,84,217.3,84z"/> </g>

</svg>